<?xml version="1.0" encoding="UTF-8" standalone="no"?>
<!-- Created with Inkscape (http://www.inkscape.org/) -->

<svg
   width="41.134434mm"
   height="49.781628mm"
   viewBox="0 0 41.134434 49.781628"
   version="1.1"
   id="svg1"
   xmlns="http://www.w3.org/2000/svg"
   xmlns:svg="http://www.w3.org/2000/svg">
  <defs
     id="defs1" />
  <g
     id="layer1"
     transform="translate(-49.816076,-87.88439)">
    <path
       d="m 51.98649,87.884385 q 18.603516,0.241156 27.905275,0.241156 h 9.852973 l 1.205783,0.241157 v 3.376194 l -0.241156,2.859429 h 0.241156 q -0.241156,0.482313 -0.241156,0.72347 0,7.717019 -0.482314,18.534619 h 0.241157 q -0.241157,0.44786 -0.241157,0.72347 0,2.1015 -0.241156,11.54107 -0.34451,1.20578 -1.688097,1.20578 -0.930176,0 -2.170411,-1.20578 -2.204861,0 -9.129503,-0.48232 -2.480469,1.20579 -3.135037,1.20579 0,-2.68718 -1.44694,-3.85851 H 69.28087 l -1.412489,-0.24116 q -0.689019,0 -1.205783,1.6881 0.482313,7.44141 0.482313,12.02338 -1.240234,1.20579 -2.17041,1.20579 h -3.135037 q -0.930176,0 -2.17041,-1.20579 l -1.446941,1.20579 h -7.441406 q -0.964627,-0.31006 -0.964627,-2.17041 0.964627,-10.02523 1.205784,-18.25901 l -0.241157,-0.48231 0.241157,-1.44694 -0.241157,-0.48232 q 0.241157,-0.41341 0.241157,-0.96462 0,-0.55122 -0.241157,-0.96463 0.241157,-0.41341 0.241157,-0.96463 v -0.48231 q 0,-0.24116 -0.241157,-0.24116 l 0.241157,-0.48231 V 96.290418 q 0,-0.999078 0.241156,-2.618273 L 51.021864,93.189832 Q 51.26302,92.225205 51.26302,91.501735 L 51.021864,91.019422 Q 51.26302,90.60601 51.26302,90.054795 v -0.72347 q 0,-0.241157 -0.241156,-0.241157 0.310058,-1.10243 0.964626,-1.205783 z M 71.554633,111.69 l 4.30637,-1.96371 q 0.0689,-0.96463 0.137804,-2.03261 -0.895725,-2.41156 -0.930176,-4.37527 h -0.172255 l -1.584744,0.31006 q -0.241157,-0.72347 -0.620117,-3.16949 l 0.344509,-0.44786 -0.861274,-1.412488 q -0.0689,0.275608 -0.103352,0.585666 l -0.792372,0.310059 H 69.28087 l -0.826823,1.171333 q -0.103353,3.27284 -1.274685,3.27284 -1.102431,0 -1.102431,2.79053 0,0.82682 -0.310058,3.82405 l 0.482313,1.58475 v 0.17225 l 2.687175,-0.48231 1.688096,-0.65457 q 0.516765,0.24116 0.930176,0.51677 z m 5.684408,15.15842 q 7.92372,0.31005 7.92372,1.92925 2.962782,0 4.581977,2.17041 0,6.71794 -3.858507,6.71794 H 74.586317 q -1.44694,0 -2.17041,-1.6881 1.136882,-8.40603 1.929254,-8.40603 0.654568,0 2.89388,-0.72347 z"
       id="text1"
       style="font-size:70.5556px;font-family:'Minecraft Evenings';-inkscape-font-specification:'Minecraft Evenings';text-align:center;text-anchor:middle;stroke-width:0.264583"
       aria-label="a" />
  </g>
</svg>
