<?xml version="1.0" encoding="UTF-8" standalone="no"?>
<!-- Created with Inkscape (http://www.inkscape.org/) -->

<svg
   width="40.514347mm"
   height="49.506058mm"
   viewBox="0 0 40.514347 49.506058"
   version="1.1"
   id="svg1"
   xmlns="http://www.w3.org/2000/svg"
   xmlns:svg="http://www.w3.org/2000/svg">
  <defs
     id="defs1" />
  <g
     id="layer1"
     transform="translate(-49.953869,-88.159966)">
    <path
       d="m 78.13477,88.15996 q 1.309137,0.241157 1.894804,0.241157 2.377117,-0.241157 5.925568,-0.241157 3.548451,0 3.548451,0.964628 v 1.41249 q 0,0.964627 0.241156,1.894803 -0.241156,3.479549 -0.930176,5.202098 0.930176,8.991701 1.171333,9.232861 l -0.964627,4.03077 v 0.24115 l 0.241157,1.65365 -0.68902,0.48231 h -6.407882 q -4.271921,0.55122 -4.271921,0.93018 1.446941,0.96463 2.135961,0.96463 h 2.377117 q 1.102431,0 2.377118,2.58382 1.41249,0.68902 4.96094,1.20578 0.413412,0.86128 0.723471,3.54846 -0.964627,2.54937 -1.205784,4.03076 l 0.72347,5.68441 q -0.757921,5.2021 -2.13596,5.2021 h -26.76841 q -0.482314,0 -0.482314,-0.48231 v -0.44787 q 0.723471,-0.89572 0.723471,-1.6881 v -2.34266 q 0,-2.03261 -0.241157,-4.27192 l 0.241157,-0.96463 q -0.930177,-5.2021 -2.135961,-4.71978 h -0.241157 q 0.964627,1.72254 0.964627,5.68441 v 6.40788 q -0.551215,1.03353 -2.377117,2.82498 h -4.513078 l -1.171333,0.24116 q -0.654569,0 -1.171334,-13.9871 0.413412,-0.41341 5.443255,-0.93018 1.240235,0.24116 2.377117,0.24116 l 0.206706,-0.48231 q -1.481392,-0.82683 -5.684411,-1.41249 -2.82498,-1.30914 -2.82498,-6.16673 -0.241157,-4.16857 -0.241157,-4.96094 0,-0.93018 0.964627,-4.03077 l -0.72347,-1.65364 0.72347,-1.20579 -0.72347,-14.193799 q 0.241156,0 0.241156,-0.241157 l 0.482314,0.241157 q 0.861275,-0.482314 1.894804,-0.482314 h 14.193803 q 4.92649,0 11.127666,-0.241157 z m -10.645352,9.474019 -0.964628,8.991701 q 0.241157,0.48232 0.241157,0.72347 h 4.513078 q 1.894804,-1.03352 1.894804,-2.61827 l 0.482314,-0.24116 h 10.886509 v -0.44786 q -11.851137,-1.13688 -11.851137,-1.8948 -0.37896,-4.513081 -0.930176,-4.513081 l -1.688098,0.241157 q -2.067059,-0.241157 -2.583823,-0.241157 z m 1.894803,20.360531 h -1.205784 l -0.447863,0.24115 0.447863,4.27193 q -1.171333,1.58474 -1.171333,2.37711 v 1.41249 l 0.241157,1.17134 h 4.719784 q 0.37896,0 0.964627,-0.93018 v -0.72347 q 0,-1.10243 -0.241157,-2.37712 l 0.241157,-0.93017 q -0.241157,-3.82406 -0.72347,-4.75424 z"
       id="text1"
       style="font-size:70.5556px;font-family:'Minecraft Evenings';-inkscape-font-specification:'Minecraft Evenings';text-align:center;text-anchor:middle;stroke-width:0.264583"
       aria-label="b" />
  </g>
</svg>
