<?xml version="1.0" encoding="UTF-8" standalone="no"?>
<!-- Created with Inkscape (http://www.inkscape.org/) -->

<svg
   width="40.824406mm"
   height="49.609413mm"
   viewBox="0 0 40.824406 49.609413"
   version="1.1"
   id="svg1"
   xmlns="http://www.w3.org/2000/svg"
   xmlns:svg="http://www.w3.org/2000/svg">
  <defs
     id="defs1" />
  <g
     id="layer1"
     transform="translate(-49.79884,-88.056615)">
    <path
       d="m 89.899779,88.056607 q 0.482313,0.241157 0.72347,0.241157 v 1.41249 q 0,0.68902 -1.41249,2.377118 0,5.925568 -2.618274,5.925568 H 69.263643 q -1.653647,0 -1.653647,6.8902 l -0.241157,0.96462 h -0.72347 q -1.481392,-1.44694 -2.135961,-1.44694 -1.41249,0.48232 -5.684411,0.96463 l -4.030765,-0.48231 v 0.48231 q 0,0.72347 4.271921,1.17133 h 4.754235 q 1.791451,0 4.030765,3.82406 0,3.47955 -1.688098,15.8819 0.72347,1.6881 2.135961,1.6881 h 0.241156 q 6.752392,0 18.775783,-0.24116 0.620118,0 1.894804,1.89481 -0.241157,2.79053 -0.241157,4.03076 v 1.8948 q 0,2.13597 -2.618274,2.13597 h -1.171333 q -6.201176,0 -6.201176,-2.85944 v -2.37711 q 0,-0.31006 -0.68902,-0.68902 h -0.482313 q 0,0.93017 -0.964628,4.03076 v 1.65365 q -0.413412,0.24116 -0.930176,0.24116 h -8.302686 q -1.06798,0 -4.513078,-3.54846 -1.515843,0.65457 -4.513078,1.41249 -0.620118,1.89481 -2.135961,1.89481 h -3.548451 q -0.792372,0 -1.688098,-0.72347 -0.241156,-4.75424 -0.447862,-18.98249 0.930176,-2.61827 2.13596,-2.61827 l 1.41249,0.24115 0.241157,-0.44786 v -0.48231 q -4.030764,-0.48232 -4.030764,-1.44695 -0.241157,-1.27468 -0.241157,-1.8948 -0.241157,-15.916351 -0.241157,-18.741331 0,-0.172255 -0.241157,-1.412491 0.792373,-2.618274 2.377118,-2.618274 h 22.530939 q 5.339902,0 15.192882,-0.241157 z"
       id="text1"
       style="font-size:70.5556px;font-family:'Minecraft Evenings';-inkscape-font-specification:'Minecraft Evenings';text-align:center;text-anchor:middle;stroke-width:0.264583"
       aria-label="c" />
  </g>
</svg>
