<?xml version="1.0" encoding="UTF-8" standalone="no"?>
<!-- Created with Inkscape (http://www.inkscape.org/) -->

<svg
   width="40.996662mm"
   height="49.816113mm"
   viewBox="0 0 40.996662 49.816113"
   version="1.1"
   id="svg1"
   xmlns="http://www.w3.org/2000/svg"
   xmlns:svg="http://www.w3.org/2000/svg">
  <defs
     id="defs1" />
  <g
     id="layer1"
     transform="translate(-49.023689,-87.953255)">
    <path
       d="m 49.506007,87.953254 q 8.233784,0.241157 11.920038,0.241157 H 87.64324 q 1.41249,0 2.377117,2.377118 -0.241157,1.688098 -0.241157,1.894803 -0.241156,16.019708 -0.241156,18.844688 0,2.61827 -1.894804,2.61827 -0.895726,0 -2.377118,0.48232 v 0.48231 q 0.0689,0.48231 0.447863,0.48231 1.274686,-0.24115 1.446941,-0.24115 0.792373,0 1.894804,2.61827 -0.241157,13.88374 -0.482314,19.05139 -0.861274,0.72347 -1.653647,0.72347 h -3.582902 q -1.171333,0 -2.377117,-1.8948 l -4.513078,-1.44694 q -2.997235,3.5829 -4.306372,3.5829 h -8.337137 q -1.205784,0 -1.205784,-0.48232 l 0.241157,-1.41249 q -0.930177,-3.13503 -0.930177,-4.06521 h -0.482314 q -0.344509,0 -0.72347,0.72347 v 2.37712 q 0,2.85943 -6.201176,2.85943 h -1.171333 q -2.652726,0 -2.652726,-2.13596 0,-3.514 -0.206706,-4.06522 0.447863,-8.81945 0.447863,-29.80009 v -3.341748 q 0,-7.613667 -1.653647,-7.613667 l -0.241157,-1.205784 v -1.41249 q 0.482314,0 0.482314,-0.241157 z M 66.18028,97.978489 q 0,1.894804 -4.754235,1.894804 l -1.446941,1.205787 q 0.0689,0.44786 0.482314,0.44786 1.136882,0 2.377118,-0.24116 3.100588,0.24116 3.100588,1.6881 0,2.30822 -0.241157,2.37712 0.241157,3.34174 0.241157,5.71886 v 16.91543 h 5.477705 q 2.170412,-0.31006 2.170412,-2.13596 -1.688098,-11.26547 -1.688098,-15.7441 2.514921,-3.54845 4.065215,-3.54845 h 4.754235 q 4.306372,-0.48231 4.306372,-1.20578 v -0.48232 q -3.582901,0.48232 -4.306372,0.48232 -0.895725,0 -5.718862,-0.96463 -0.275608,0 -1.894804,1.44694 H 72.381456 L 72.1403,104.38637 q 0,-6.407881 -1.653647,-6.407881 z"
       id="text1"
       style="font-size:70.5556px;font-family:'Minecraft Evenings';-inkscape-font-specification:'Minecraft Evenings';text-align:center;text-anchor:middle;stroke-width:0.264583"
       aria-label="d" />
  </g>
</svg>
