<?xml version="1.0" encoding="UTF-8" standalone="no"?>
<!-- Created with Inkscape (http://www.inkscape.org/) -->

<svg
   width="40.100937mm"
   height="49.402702mm"
   viewBox="0 0 40.100937 49.402702"
   version="1.1"
   id="svg1"
   xmlns="http://www.w3.org/2000/svg"
   xmlns:svg="http://www.w3.org/2000/svg">
  <defs
     id="defs1" />
  <g
     id="layer1"
     transform="translate(-50.315603,-88.263313)">
    <path
       d="m 53.175036,88.263313 h 36.27688 q 0.34451,0 0.723471,0.723471 v 2.13596 q 0,0.792373 0.241156,1.205785 0,5.718862 -2.859431,5.718862 h -1.205784 q -10.92096,0 -14.331607,-0.482314 -0.930176,0.241157 -1.653647,0.241157 l -2.377117,-0.241157 q 0,1.722549 -1.205784,9.784073 l 0.482313,0.24116 h 0.964628 q 9.060607,0 9.060607,0.96463 l 0.241157,0.96463 -0.241157,1.17133 q 0,2.48047 1.41249,3.34174 l 0.482314,-0.24115 -0.241157,-1.17134 q 0,-4.54752 2.859431,-4.54752 2.032608,0 7.165803,-0.24116 0.241157,0.44786 0.241157,0.72347 0,1.99816 0.241157,7.64812 -0.895725,1.8948 -2.377117,1.8948 h -6.201176 q -1.205785,0 -2.170412,-2.13596 h -0.241157 q 0,2.13596 -1.653647,2.13596 h -8.81945 q -0.241157,3.99631 -0.964628,8.57829 0.241157,0.41342 0.241157,0.96463 h 18.603528 q 0.482314,0.0689 0.482314,0.48231 v 0.48232 l -1.205784,0.24116 h -3.548451 q -0.895725,0.44786 -1.205784,1.41249 0.241157,0 0.241157,0.24115 l 2.377117,-0.24115 h 3.341745 q 0.930176,0 2.859431,-2.37712 h 0.241157 q 0.482314,0.0689 0.482314,0.48231 v 2.61828 q 0,1.68809 0.241157,5.23654 -1.171334,1.44695 -4.306373,1.44695 h -3.100588 q -2.377117,0 -2.377117,-5.96002 v -0.96463 h -0.241157 q -1.033529,0 -1.205784,6.68349 h -13.36698 q -3.100588,0 -5.718862,-5.96002 0,-0.55122 0.241157,-0.96463 -0.241157,-1.61919 -0.241157,-2.61827 v -2.61828 q 0,-0.62011 -0.964627,-0.72347 -1.894804,0 -4.995392,0.24116 -2.859431,-0.48231 -2.859431,-1.20578 v -4.9954 q 0,-0.24115 -0.241157,-0.24115 l 0.241157,-0.48232 v -0.24115 q 0,-0.96463 -0.241157,-1.89481 0,-0.48231 0.241157,-0.48231 -0.241157,-2.37712 -0.241157,-3.5829 v -6.44234 q 0,-0.55121 -0.241157,-0.96462 0,-1.20579 8.81945,-1.89481 0,-0.41341 1.205784,-0.48231 l 0.482314,0.24116 q 0.930177,-0.37896 0.930177,-0.72347 v -0.24116 l -4.513079,-0.72347 q -2.204862,0.72347 -2.618274,0.72347 -3.824058,0 -3.824058,-3.582903 0,-2.859431 -0.241157,-2.859431 l 0.241157,-0.482314 q -0.241157,-2.859431 -0.241157,-4.306372 0,-1.653647 2.377117,-1.653647 z m 5.029843,37.723817 q 0.275608,0.37896 0.68902,1.89481 l -0.241157,0.48231 q 0.241157,3.20394 0.241157,4.75424 h 0.241156 l -0.241156,0.48231 v 1.20578 q 0,0.51677 0.241156,0.96463 0,1.10243 -3.341744,1.89481 h -3.824059 q -1.136882,0 -1.653647,-10.74871 1.205784,-0.72347 1.894804,-0.72347 h 4.788686 z"
       id="text1"
       style="font-size:70.5556px;font-family:'Minecraft Evenings';-inkscape-font-specification:'Minecraft Evenings';text-align:center;text-anchor:middle;stroke-width:0.264583"
       aria-label="e" />
  </g>
</svg>
