<?xml version="1.0" encoding="UTF-8" standalone="no"?>
<!-- Created with Inkscape (http://www.inkscape.org/) -->

<svg
   width="41.961292mm"
   height="49.368248mm"
   viewBox="0 0 41.961292 49.368248"
   version="1.1"
   id="svg1"
   xmlns="http://www.w3.org/2000/svg"
   xmlns:svg="http://www.w3.org/2000/svg">
  <defs
     id="defs1" />
  <g
     id="layer1"
     transform="translate(-49.402652,-88.297767)">
    <path
       d="m 52.503242,88.297764 h 36.001272 q 1.446941,0 1.446941,1.894804 0,1.136882 1.41249,4.065215 -0.516764,3.582902 -2.13596,3.582902 h -9.542921 q -0.34451,0 -0.723471,-0.723471 v -1.41249 q 0,-0.241156 0.482314,-1.929254 0,-1.41249 -2.618274,-1.41249 -0.241157,-0.964628 -2.135961,-3.341745 -0.378961,0 -1.205784,1.894803 1.343588,0 2.618274,3.341745 1.205784,0.241157 1.205784,0.964628 -0.482313,2.618274 -2.13596,2.618274 h -5.718863 l -1.688098,-0.241157 q -0.482313,0.792373 -0.482313,1.446941 v 6.407881 q 0,1.92926 2.170411,2.41157 h 6.649039 q 1.205784,0.0344 1.205784,0.48231 l 2.859432,-0.24115 h 8.81945 q 0.551216,0 0.72347,1.65364 -0.72347,2.51492 -0.72347,3.58291 0,0.31005 0.964627,2.37711 -0.482313,2.85943 -2.13596,2.85943 H 77.066789 l -0.482313,-0.24115 q 0,-2.06706 1.929255,-7.85483 v -0.24115 q -0.241157,-0.48232 -0.241157,-0.72347 H 77.79026 l -3.341745,6.92464 q -2.549372,2.37712 -7.165803,2.37712 -0.792373,18.36237 -2.135961,18.36237 l -1.688098,0.48232 H 50.608438 q -1.205784,-0.62012 -1.205784,-1.89481 v -4.30637 q 0,-4.30637 0.241157,-11.67888 0,-0.24116 -0.241157,-0.24116 l 0.241157,-1.6881 v -10.23194 q 0,-10.645349 2.377117,-19.085839 z"
       id="text1"
       style="font-size:70.5556px;font-family:'Minecraft Evenings';-inkscape-font-specification:'Minecraft Evenings';text-align:center;text-anchor:middle;stroke-width:0.264583"
       aria-label="f" />
  </g>
</svg>
