<?xml version="1.0" encoding="UTF-8" standalone="no"?>
<!-- Created with Inkscape (http://www.inkscape.org/) -->

<svg
   width="40.962215mm"
   height="49.506058mm"
   viewBox="0 0 40.962215 49.506058"
   version="1.1"
   id="svg1"
   xmlns="http://www.w3.org/2000/svg"
   xmlns:svg="http://www.w3.org/2000/svg">
  <defs
     id="defs1" />
  <g
     id="layer1"
     transform="translate(-49.72994,-88.159966)">
    <path
       d="m 89.761975,88.15996 q 0.447863,0.241157 0.72347,0.241157 v 1.41249 q 0,0.68902 -1.446941,2.377118 0,5.925568 -2.583823,5.925568 H 69.16029 q -1.653647,0 -1.653647,6.855747 l -0.241157,0.96462 h -0.72347 q -1.481392,-1.44694 -2.135961,-1.44694 -1.41249,0.48232 -5.684411,0.96463 l -4.030765,-0.48231 v 0.48231 q 0,0.72347 4.271922,1.17133 h 4.754234 q 1.791451,0 4.030765,3.78961 0,3.47955 -1.688098,15.8819 0.723471,1.65365 2.135961,1.65365 h 5.925568 q 0.413412,0 0.964627,-3.06614 0.447863,0 0.447863,-0.24115 l 0.482314,0.24115 h 0.482313 q 1.757,0 6.614588,-0.48231 1.825902,0 4.754235,0.48231 0.516765,-0.0689 1.41249,-1.44694 l -0.482313,-0.2067 q -0.447863,0 -1.653647,0.44786 -4.340824,-0.68902 -4.960941,-0.68902 -0.310059,0 -2.377118,0.24116 -5.443254,-0.58567 -5.443254,-5.47771 v -3.54845 l -0.241157,-1.41249 q 0.620117,-3.06614 2.377117,-3.06614 h 10.886509 q 1.929255,0 3.307294,1.89481 v 14.43496 q -1.894803,3.54845 -1.894803,7.57921 v 1.8948 q 0,2.13597 -2.583824,2.13597 H 85.00774 q -5.133196,0 -6.373431,-1.89481 h -1.653647 v 1.65365 l -1.205784,0.24116 h -8.268235 q -1.06798,0 -4.513078,-3.54846 -1.515843,0.65457 -4.513078,1.41249 -0.585667,1.89481 -2.10151,1.89481 h -3.582902 q -0.792372,0 -1.653646,-0.72347 -0.241157,-4.75424 -0.447863,-18.94804 0.930176,-2.58382 2.101509,-2.58382 l 1.446942,0.24115 0.241156,-0.48231 v -0.48231 q -4.030764,-0.48232 -4.030764,-1.41249 -0.241157,-1.30914 -0.241157,-1.89481 -0.241157,-15.916349 -0.241157,-18.706879 0,-0.172254 -0.241157,-1.41249 0.792373,-2.618274 2.377118,-2.618274 h 22.496489 q 5.339901,0 15.15843,-0.241157 z"
       id="text1"
       style="font-size:70.5556px;font-family:'Minecraft Evenings';-inkscape-font-specification:'Minecraft Evenings';text-align:center;text-anchor:middle;stroke-width:0.264583"
       aria-label="g" />
  </g>
</svg>
