<?xml version="1.0" encoding="UTF-8" standalone="no"?>
<!-- Created with Inkscape (http://www.inkscape.org/) -->

<svg
   width="42.512505mm"
   height="49.402702mm"
   viewBox="0 0 42.512505 49.402702"
   version="1.1"
   id="svg1"
   xmlns="http://www.w3.org/2000/svg"
   xmlns:svg="http://www.w3.org/2000/svg">
  <defs
     id="defs1" />
  <g
     id="layer1"
     transform="translate(-49.350975,-88.263313)">
    <path
       d="m 64.612761,88.263313 q 2.411568,0.551216 2.411568,2.135961 0,4.478627 -4.547529,7.165803 -2.032607,-0.241157 -3.100588,-0.241157 -0.654568,1.929255 -3.582901,1.929255 -3.410647,0 -5.477706,1.412495 v 0.24115 q 5.374353,-0.48231 7.854823,-0.48231 h 0.723471 q 0.275607,0 2.618274,-0.482315 h 2.170412 q 0.826823,0 1.653646,-0.930177 h 0.482314 q 0.447863,8.337132 2.135961,8.337132 0.689019,0 4.065215,0.72348 h 2.204863 v -8.819455 q 0,-1.688098 3.341745,-1.688098 0,-0.241157 0.447862,-0.241157 v -0.72347 q -2.687176,0 -3.582901,-1.171333 0.895725,-7.165804 1.929254,-7.165804 H 89.24521 q 2.135961,0.310059 2.135961,2.135961 v 5.512156 q 0,2.204863 0.241157,6.20118 0,0.24115 -0.241157,0.24115 l 0.241157,2.85943 v 13.60814 l 0.241157,1.41249 q 0,0.79237 -1.894804,1.44694 l -3.582902,-0.48231 q -0.964627,0.34451 -0.964627,0.72347 -1.309138,-0.24116 -1.894804,-0.24116 -1.378039,0.86128 -7.648117,1.89481 -0.792373,-0.31006 -1.446941,-0.93018 l -2.377118,0.20671 h -1.446941 q -1.343588,0 -3.341745,-0.20671 l -4.788686,1.8948 q -3.341745,-0.24115 -4.306372,-0.24115 -4.513078,0.65456 -4.513078,3.34174 v 3.82406 l 0.241157,1.20578 h 0.447862 q 0.654569,-6.68349 3.341745,-6.68349 l 0.964628,-0.24115 q 2.859431,0.68902 3.341745,0.68902 2.170411,-1.17134 2.859431,-1.17134 1.240235,0 1.688098,1.17134 0,0.51676 -0.723471,6.23562 0.723471,1.65365 0.964628,1.65365 0,3.34175 -1.688098,3.34175 h -8.819451 q -0.964627,0 -0.964627,-2.85944 0,-0.24115 0.482314,-2.85943 h -0.482314 q -1.653647,2.30822 -1.653647,4.9954 -0.895726,0.72347 -1.688098,0.72347 h -1.41249 q -0.723471,0 -0.964628,-1.89481 l 0.241157,-1.6881 -0.241157,-0.48231 q 0,-0.24116 0.241157,-0.24116 l -0.241157,-2.85943 v -8.81945 q 0,-0.24116 -0.241156,-0.24116 l 0.241156,-0.48231 v -0.72347 q 0,-0.51676 -0.241156,-0.93018 0.241156,-0.44786 0.241156,-0.96462 0,-0.55122 -0.241156,-0.96463 0.241156,-0.41341 0.241156,-0.96463 v -0.2067 q 0,-0.55122 -0.241156,-0.96463 0.241156,-0.41341 0.241156,-0.96463 v -0.24116 q 0,-0.51676 -0.241156,-0.96462 0.241156,-0.41341 0.241156,-0.93018 v -0.96463 q 0,-0.24115 -0.241156,-0.24115 l 0.241156,-0.48232 v -1.41249 q 0,-0.24115 -0.241156,-0.24115 l 0.241156,-0.48232 v -6.68349 q 0,-0.55121 0.241157,-0.96462 0,-0.24116 -0.241157,-0.24116 1.240236,-11.954491 1.653647,-12.161197 z m 21.773018,33.899767 q 4.995392,1.24023 4.995392,1.8948 v 0.24116 q -0.241157,9.12951 -0.241157,10.02523 0,0.1378 0.723471,2.37712 -0.999079,0.96463 -1.894804,0.96463 h -5.271 q -1.41249,0 -1.41249,-1.65365 h -1.205784 q -0.895726,0 -2.618275,1.65365 h -3.341744 q -1.515843,0 -2.135961,-2.85944 0.68902,-6.23562 2.135961,-8.37158 0,-1.20579 6.442332,-2.13596 1.274687,-1.20579 3.582902,-1.20579 0,-0.51676 0.241157,-0.93017 z"
       id="text1"
       style="font-size:70.5556px;font-family:'Minecraft Evenings';-inkscape-font-specification:'Minecraft Evenings';text-align:center;text-anchor:middle;stroke-width:0.264583"
       aria-label="h" />
  </g>
</svg>
