<?xml version="1.0" encoding="UTF-8" standalone="no"?>
<!-- Created with Inkscape (http://www.inkscape.org/) -->

<svg
   width="16.949875mm"
   height="49.368248mm"
   viewBox="0 0 16.949875 49.368248"
   version="1.1"
   id="svg1"
   xmlns="http://www.w3.org/2000/svg"
   xmlns:svg="http://www.w3.org/2000/svg">
  <defs
     id="defs1" />
  <g
     id="layer1"
     transform="translate(-61.787776,-88.297767)">
    <path
       d="M 63.682585,88.297764 H 76.56725 q 1.929255,0 1.929255,4.065216 v 3.100588 q 0,0.861274 0.241157,2.13596 0,1.550294 -2.170412,1.894804 h -2.377117 q -2.135961,1.136878 -2.135961,1.446938 v 0.48232 q 1.515843,0 3.100588,-0.24116 3.100588,0.48231 3.100588,1.17133 v 4.54753 q 0,10.05969 0.241157,28.86992 -0.620118,1.89481 -2.170412,1.89481 h -1.41249 q -1.481392,0 -4.547529,-4.54753 -0.482313,0.10335 -0.482313,0.48231 v 0.96463 q 0,1.6881 0.482313,2.61827 l -0.72347,0.48232 h -6.201176 q -0.68902,0 -1.653647,-3.58291 0.241157,-22.94435 0.241157,-30.28241 l 0.241156,-2.13596 -0.241156,-0.48231 q 0.241156,-4.409725 0.241156,-7.40696 v -4.754235 q 0.241157,-0.723471 1.412491,-0.723471 z"
       id="text1"
       style="font-size:70.5556px;font-family:'Minecraft Evenings';-inkscape-font-specification:'Minecraft Evenings';text-align:center;text-anchor:middle;stroke-width:0.264583"
       aria-label="i" />
  </g>
</svg>
