<?xml version="1.0" encoding="UTF-8" standalone="no"?>
<!-- Created with Inkscape (http://www.inkscape.org/) -->

<svg
   width="36.724743mm"
   height="49.506058mm"
   viewBox="0 0 36.724743 49.506058"
   version="1.1"
   id="svg1"
   xmlns="http://www.w3.org/2000/svg"
   xmlns:svg="http://www.w3.org/2000/svg">
  <defs
     id="defs1" />
  <g
     id="layer1"
     transform="translate(-51.814223,-88.159966)">
    <path
       d="m 74.414064,88.15996 h 12.919117 q 1.205784,0.620118 1.205784,1.894804 v 4.306372 q 0,4.340823 -0.241157,11.713334 0,0.24116 0.241157,0.24116 l -0.241157,1.68809 v 10.30085 q 0,10.64535 -2.377117,19.12029 l -0.482314,0.24116 H 54.673654 q -1.653647,0 -1.653647,-3.10059 -1.03353,-2.82498 -1.205784,-2.89388 0.516764,-3.58291 2.13596,-3.58291 h 4.20302 q 0.344509,0 0.72347,0.72347 v 1.44695 q -0.482314,1.68809 -0.482314,1.8948 0,1.44694 2.652726,1.44694 0.206706,0.96463 2.13596,3.34175 0.378961,0 1.205785,-1.89481 -1.343589,0 -2.652726,-3.37619 -1.171333,-0.34451 -1.171333,-0.68902 0.310059,-2.89389 2.135961,-2.89389 h 5.753313 l 1.653647,0.24116 q 0.482314,-0.79237 0.482314,-1.41249 v -7.20025 q 0.482313,-7.06245 0.482313,-7.64812 v -0.96463 q 0,-1.65365 -0.482313,-1.65365 l 0.241156,-0.48231 v -0.72347 q 0,-1.37804 -0.241156,-1.6881 0.792372,-17.914506 2.170411,-17.914506 z"
       id="text1"
       style="font-size:70.5556px;font-family:'Minecraft Evenings';-inkscape-font-specification:'Minecraft Evenings';text-align:center;text-anchor:middle;stroke-width:0.264583"
       aria-label="j" />
  </g>
</svg>
