<?xml version="1.0" encoding="UTF-8" standalone="no"?>
<!-- Created with Inkscape (http://www.inkscape.org/) -->

<svg
   width="40.686607mm"
   height="49.712761mm"
   viewBox="0 0 40.686607 49.712761"
   version="1.1"
   id="svg1"
   xmlns="http://www.w3.org/2000/svg"
   xmlns:svg="http://www.w3.org/2000/svg">
  <defs
     id="defs1" />
  <g
     id="layer1"
     transform="translate(-37.538944,-55.292606)">
    <path
       d="m 39.43375,55.292602 1.205784,0.241157 h 4.513079 q 0.37896,0.03445 2.377117,2.859431 v 6.407882 q -0.172255,5.477706 -0.964627,5.477706 0.241156,0.447862 0.241156,0.72347 -0.482313,2.135961 -0.482313,2.377118 0,3.582901 1.929255,4.754235 h 0.689019 q 3.100588,-0.723471 3.341745,-0.723471 1.584745,1.205784 2.135961,1.205784 0,-0.241157 0.241156,-0.241157 -0.620117,-1.584745 -1.894803,-2.618274 -2.756079,0.482314 -4.030765,0.482314 l -0.964627,-0.723471 q 0.72347,-1.963705 1.171333,-9.749627 0,-0.275607 -0.206706,-0.72347 0.206706,-2.583823 0.206706,-4.513078 v -2.377118 q 0,-0.792372 -0.689019,-1.653647 v -0.482313 q 0.0689,-0.482314 0.482313,-0.482314 h 4.960941 q 0.34451,0 0.723471,0.723471 0.241156,8.991705 0.241156,12.126744 0,0.447863 1.205785,2.13596 l -0.482314,4.271922 0.482314,0.241157 H 57.0382 l 2.859431,0.241156 q 0.482314,-0.930176 0.723471,-4.754235 0,-0.241156 -0.241157,-0.72347 0.482314,-4.203019 0.482314,-9.026156 1.240235,-5.236549 2.618274,-5.236549 H 75.36612 q 1.894804,0 1.894804,3.548451 0.241157,0 0.482314,1.688098 l -0.723471,5.718862 q 0.241157,1.481392 1.205784,4.030764 0,4.030765 -2.618274,4.030765 -3.582902,0 -4.513078,3.100588 -0.447863,0.241157 -0.964627,0.241157 h -2.377118 q -1.205784,0 -2.135961,1.171333 l 4.271922,0.723471 h 6.407882 l 0.72347,0.482313 -0.241157,1.653647 v 0.241157 q 0,0.482314 0.964628,3.824059 -1.205784,7.510313 -1.205784,11.403273 v 0.482314 q 0.72347,3.100589 0.72347,3.341749 v 1.17133 q 0,1.9637 -2.618274,2.61827 h -4.513078 l -1.205785,-0.24115 v -2.37712 q 0,-0.34451 -0.689019,-0.72347 h -0.241157 q -0.482314,3.34174 -1.894804,3.34174 h -3.582902 q -1.515843,0 -1.894803,-1.8948 l 0.241157,-0.48231 v -0.48232 q 0,-1.65364 -1.205785,-4.754233 0.34451,-7.131352 1.653647,-7.131352 5.925568,-0.482314 10.955411,-1.205784 V 88.606698 H 61.310121 q -0.310059,0 -1.41249,-2.377118 -0.378961,0 -0.964627,-0.482313 h -4.513078 q -0.241157,1.205784 -0.482314,4.513078 0.482314,1.791451 0.482314,2.135961 -0.999079,0.964627 -8.302686,0.964627 -1.584745,0.620117 -1.929255,1.41249 0.241157,0 0.241157,0.241157 3.341745,-0.482314 6.442333,-0.482314 4.030764,0.310059 4.030764,1.446941 0,8.785003 -2.13596,8.785003 h -9.990784 q -1.309137,0 -1.894804,-1.17134 2.859431,-2.27376 2.859431,-3.5829 v -4.99539 h -0.241156 q -1.102432,0.585666 -1.688098,5.47771 -1.41249,0 -3.548451,3.7896 h -0.482314 q 0.723471,-15.881898 0.964628,-16.880976 -0.964628,-1.963706 -1.205785,-4.271922 0,-11.196567 3.582902,-11.196567 0,-0.275608 4.513078,-0.930177 l 0.68902,-0.72347 q -0.447863,-0.241157 -0.68902,-0.241157 -0.620117,0 -1.894804,0.241157 -5.477705,-0.413412 -5.477705,-1.205785 0.516765,-13.780391 1.171333,-13.780391 z"
       id="text1"
       style="font-size:70.5556px;font-family:'Minecraft Evenings';-inkscape-font-specification:'Minecraft Evenings';text-align:center;text-anchor:middle;stroke-width:0.264583"
       aria-label="K" />
  </g>
</svg>
