<?xml version="1.0" encoding="UTF-8" standalone="no"?>
<!-- Created with Inkscape (http://www.inkscape.org/) -->

<svg
   width="36.724743mm"
   height="49.506058mm"
   viewBox="0 0 36.724743 49.506058"
   version="1.1"
   id="svg1"
   xmlns="http://www.w3.org/2000/svg"
   xmlns:svg="http://www.w3.org/2000/svg">
  <defs
     id="defs1" />
  <g
     id="layer1"
     transform="translate(-51.814223,-88.159966)">
    <path
       d="m 67.592771,88.642274 q 1.378039,0 2.170411,17.914506 -0.241157,0.31006 -0.241157,1.6881 v 0.72347 l 0.241157,0.48231 q -0.482314,0 -0.482314,1.65365 v 0.96463 q 0,0.58567 0.482314,7.64812 v 7.20025 q 0,0.62012 0.482314,1.41249 l 1.653647,-0.24116 h 5.753313 q 1.825902,0 2.135961,2.89389 0,0.34451 -1.171334,0.68902 -1.309137,3.37619 -2.652725,3.37619 0.826824,1.89481 1.205784,1.89481 1.929255,-2.37712 2.135961,-3.34175 2.652725,0 2.652725,-1.44694 0,-0.20671 -0.482313,-1.8948 v -1.44695 q 0.37896,-0.72347 0.72347,-0.72347 h 4.20302 q 1.619195,0 2.13596,3.58291 -0.172255,0.0689 -1.205784,2.89388 0,3.10059 -1.653647,3.10059 H 54.914811 l -0.482314,-0.24116 q -2.377118,-8.47494 -2.377118,-19.12029 v -10.30085 l -0.241156,-1.68809 q 0.241156,0 0.241156,-0.24116 -0.241156,-7.372511 -0.241156,-11.713334 v -4.306372 q 0,-1.274686 1.205784,-1.894804 h 12.919117 z"
       id="text1"
       style="font-size:70.5556px;font-family:'Minecraft Evenings';-inkscape-font-specification:'Minecraft Evenings';text-align:center;text-anchor:middle;stroke-width:0.264583"
       aria-label="l" />
  </g>
</svg>
