<?xml version="1.0" encoding="UTF-8" standalone="no"?>
<!-- Created with Inkscape (http://www.inkscape.org/) -->

<svg
   width="56.12064mm"
   height="49.712761mm"
   viewBox="0 0 56.12064 49.712761"
   version="1.1"
   id="svg1"
   xmlns="http://www.w3.org/2000/svg"
   xmlns:svg="http://www.w3.org/2000/svg">
  <defs
     id="defs1" />
  <g
     id="layer1"
     transform="translate(-42.167951,-87.953253)">
    <path
       d="m 48.127968,87.953254 h 8.302686 q 1.894803,0 1.894803,3.341745 v 0.930177 q 0,0.482313 -0.447862,2.377117 l 0.689019,3.341745 v 0.241157 q -2.549372,0.482313 -5.925568,0.72347 v 0.447863 h 5.684411 l 1.446942,0.241157 q 1.653646,-0.930177 2.377117,-0.930177 h 0.241157 q 1.205784,0.826824 1.894804,2.377122 v 0.68902 q -0.723471,0.93017 -0.723471,2.17041 0.654569,3.7896 1.446941,3.7896 7.613666,0.24116 9.990784,0.24116 0,-0.24116 0.241157,-0.24116 0,0.96463 0.689019,1.65365 l 1.688098,-0.24116 h 3.548451 q 0.792372,0 1.205784,-0.2067 l 1.41249,0.2067 h 0.723471 q 7.131352,0 7.131352,1.6881 l 1.205784,0.24116 h 3.548451 q 1.791451,0.27561 1.894804,0.93018 v 23.80562 q -1.033529,1.65365 -2.377118,1.65365 h -9.026156 q -5.477705,0 -5.477705,-3.34175 -0.241157,0 -0.241157,-0.2067 v -13.81484 l -0.241157,-1.65365 h -0.241157 q -1.240235,0 -4.030764,-0.24116 l -0.241157,0.48232 q 0,10.23194 -2.135961,10.23194 H 72.1403 q -1.515843,0 -3.100588,0.2067 -4.030765,0 -4.030765,-1.41249 l -1.446941,-9.26731 q -3.203941,-0.31006 -3.789607,-0.48231 -0.999079,0 -1.894804,6.40788 l -2.377118,1.6881 q -4.547529,0 -4.547529,-1.44695 -0.585667,-1.86035 -1.171333,-2.61827 l 0.241157,-1.17133 q 0,-5.78777 -2.377118,-6.8902 -4.754235,0 -4.754235,-1.92925 l -0.72347,-10.23194 q 0,-1.894808 5.236548,-1.894808 0.0689,-0.34451 4.995392,-1.894804 v -0.482314 h -0.241157 q -2.204862,0 -6.201176,0.241157 -2.859431,-0.378961 -3.789607,-1.41249 0,-8.09598 1.205784,-8.09598 2.618274,-0.241157 4.754235,-0.241157 z m 33.761958,0.241157 h 14.745019 q 0.999078,0 1.205784,4.754235 -0.34451,14.986174 -1.688098,14.986174 -0.241157,0.72347 -1.41249,0.72347 h -1.653647 l -4.547529,-1.6881 Q 86.23075,95.808077 83.543573,95.808077 q -2.377117,0 -2.377117,-1.446941 l 0.482314,-1.653647 q 0,-0.413411 -0.241157,-4.271921 z m 1.653647,9.990784 q 0.68902,0 2.859432,8.784995 -1.343589,0.72347 -6.166726,0.72347 h -0.241156 q -4.754235,-0.1378 -4.754235,-1.17133 0.344509,0 0.689019,-0.72347 v -0.48231 q 0,-0.99908 -0.206706,-2.61828 0.930177,-4.513075 2.135961,-4.513075 z m -38.75735,17.363295 h 1.653647 q 1.860353,0 2.618274,4.99539 0.482314,0 0.482314,1.17133 -0.241157,0.48232 -0.241157,0.72347 0.895726,4.51308 2.135961,4.51308 7.613666,0.51677 7.613666,1.6881 l 0.241157,1.17133 -0.482314,0.24116 h -0.689019 q -2.067059,0 -4.306373,0.24116 -1.998156,0 -4.030764,-2.61828 l -0.482314,-0.24115 -0.241157,0.48231 q 1.102432,3.34174 2.135961,3.34174 7.613666,0 7.613666,1.65365 0.482314,1.55029 0.482314,2.13596 -1.343588,2.61828 -2.618275,2.61828 h -5.925568 q -7.372509,0 -7.372509,-1.65365 -0.482314,-2.89388 -0.482314,-4.54753 v -13.78039 q 0,-2.13596 1.894804,-2.13596 z"
       id="text1"
       style="font-size:70.5556px;font-family:'Minecraft Evenings';-inkscape-font-specification:'Minecraft Evenings';text-align:center;text-anchor:middle;stroke-width:0.264583"
       aria-label="m" />
  </g>
</svg>
