<?xml version="1.0" encoding="UTF-8" standalone="no"?>
<!-- Created with Inkscape (http://www.inkscape.org/) -->

<svg
   width="45.681995mm"
   height="49.506058mm"
   viewBox="0 0 45.681995 49.506058"
   version="1.1"
   id="svg1"
   xmlns="http://www.w3.org/2000/svg"
   xmlns:svg="http://www.w3.org/2000/svg">
  <defs
     id="defs1" />
  <g
     id="layer1"
     transform="translate(-47.645652,-88.159966)">
    <path
       d="m 50.263929,88.15996 h 12.436803 q 1.929254,0 1.929254,5.271 0.241157,0 0.482314,1.653647 -0.310059,1.446941 -3.582902,1.446941 v 0.72347 q 3.755157,0.964628 8.130431,1.205785 0.413412,0.861274 1.171333,5.477707 -0.930176,1.6881 -0.930176,2.41157 v 1.17133 h 3.341745 q 3.341745,0 3.341745,-6.44233 l 0.241157,-2.170415 h 0.482313 q 0.826824,0.964628 1.653647,0.964628 h 2.170412 q 2.308215,0.482317 2.618274,0.482317 h 0.723471 q 2.514921,0 7.889274,0.48231 v -0.24116 Q 89.7792,98.908665 84.47375,98.908665 q -0.861275,-1.653647 -1.688098,-1.653647 -0.482314,0 -2.618274,0.241157 -4.54753,-2.687176 -4.54753,-7.40696 0.930177,-1.929255 2.411569,-1.929255 h 13.125822 q 0.999079,0 1.446942,9.336215 0.241156,0 0.482313,2.618275 0,0.24116 -0.241157,0.24116 l 0.241157,1.20578 v 6.68349 q 0,0.24116 0.241157,0.24116 l -0.241157,0.48231 v 1.44694 q 0,0.24116 0.241157,0.24116 l -0.241157,0.44786 v 0.96463 q 0,0.55121 0.241157,0.96463 -0.241157,0.41341 -0.241157,0.96462 v 0.24116 q 0,0.51677 0.241157,0.93018 -0.241157,0.44786 -0.241157,0.96462 v 0.24116 q 0,0.55122 0.241157,0.96463 -0.241157,0.41341 -0.241157,0.96463 0,0.51676 0.241157,0.93017 -0.241157,0.44787 -0.241157,0.96463 v 0.72347 q 0,0.24116 0.241157,0.24116 l -0.241157,0.48231 v 8.8539 q 0,0.99908 -0.241157,2.61828 l 0.241157,0.48231 -0.241157,0.48231 q 0.241157,1.6881 0.241157,1.89481 -0.34451,1.6881 -0.964627,1.6881 h -1.41249 q -2.170412,0 -2.170412,-3.58291 -0.826823,-2.17041 -1.205784,-2.17041 h -0.482314 v 0.24116 q 0.482314,2.17041 0.482314,3.13504 -0.172255,2.37712 -0.930176,2.37712 h -8.853902 q -1.688098,0 -1.688098,-3.10059 l 0.964628,-1.92926 -0.723471,-5.96002 q 0,-1.44694 1.688098,-1.44694 0.723471,0 2.859431,1.20579 l 3.582902,-0.72347 q 3.341745,0.62011 3.341745,3.34174 0.72347,3.4451 0.72347,3.5829 h 0.482314 l 0.241157,-1.17133 v -3.85851 q 0,-2.75608 -4.788686,-3.34174 -3.85851,0.24115 -4.306372,0.24115 -1.929255,-0.96463 -4.547529,-1.8948 -2.377118,0.24116 -3.582902,0.24116 -0.723471,-0.75793 -1.653647,-6.23563 0,-0.79237 2.618274,-1.44694 v -0.20671 q 0,-0.86127 -5.99447,-1.44694 h -1.171333 q -0.482314,0 -0.482314,0.72347 0,1.30914 0.241157,2.61827 -0.34451,6.68349 -1.446941,6.68349 -4.92649,-0.68901 -8.371588,-1.8948 -0.172255,0 -1.446941,0.24116 0,-0.37896 -0.930176,-0.72347 -2.928333,0.31006 -3.376196,0.48231 -1.481392,-0.31006 -2.135961,-1.20578 l 0.241157,-1.65365 v -13.64259 q 0,-0.99908 0.241157,-2.61827 l -0.241157,-0.48232 q 0.241157,-4.03076 0.241157,-6.235623 v -5.512156 q 0.310059,-2.135961 2.135961,-2.135961 z m 2.893882,33.96866 q 0,1.41249 3.100588,1.41249 0.447862,1.44695 5.512156,1.44695 3.582902,2.54937 3.582902,9.57737 h 0.241157 q -0.551216,3.10059 -2.170412,3.10059 h -2.859431 q -0.620118,0 -2.618274,-1.6881 h -1.688098 q -0.34451,1.6881 -0.964628,1.6881 h -5.718862 q -1.309137,0 -1.929255,-1.20579 0.723471,-1.65365 0.723471,-2.37712 -0.241157,-8.23378 -0.241157,-10.05968 0,-0.65457 5.029843,-1.89481 z"
       id="text1"
       style="font-size:70.5556px;font-family:'Minecraft Evenings';-inkscape-font-specification:'Minecraft Evenings';text-align:center;text-anchor:middle;stroke-width:0.264583"
       aria-label="n" />
  </g>
</svg>
