<?xml version="1.0" encoding="UTF-8" standalone="no"?>
<!-- Created with Inkscape (http://www.inkscape.org/) -->

<svg
   width="40.927757mm"
   height="49.368248mm"
   viewBox="0 0 40.927757 49.368248"
   version="1.1"
   id="svg1"
   xmlns="http://www.w3.org/2000/svg"
   xmlns:svg="http://www.w3.org/2000/svg">
  <defs
     id="defs1" />
  <g
     id="layer1"
     transform="translate(-49.902197,-88.297767)">
    <path
       d="m 51.073527,88.297764 h 12.781312 q 2.44602,0 2.824981,3.066137 v 2.135961 q 0,0.34451 0.689019,0.689019 h 0.482314 q 0,-0.930176 0.964627,-3.996313 v -1.653647 q 0.413412,-0.241157 0.930177,-0.241157 h 3.376195 q 1.03353,0 4.478628,3.548451 1.515843,-0.654569 4.478627,-1.41249 0.620117,-1.894804 2.13596,-1.894804 h 3.548451 q 0.792373,0 1.653647,0.689019 0.241157,5.133196 0.482314,18.91359 -0.964628,2.58382 -2.135961,2.58382 l -1.41249,-0.20671 -0.241157,0.44787 v 0.48231 q 4.030765,0.48232 4.030765,1.41249 0.206706,1.30914 0.206706,1.89481 0.241156,15.84745 0.241156,18.67243 0.241157,1.24023 0.241157,1.41249 -0.792372,2.58382 -2.342666,2.58382 h -21.11845 q -4.23747,0 -11.575528,0.24116 -3.307294,-0.68902 -3.307294,-0.93018 -2.342667,-7.82037 -2.342667,-18.67243 v -10.16304 l -0.241157,-1.41249 0.241157,-0.48231 Q 49.902193,98.701959 49.902193,94.430038 v -4.23747 q 0,-1.274686 1.171334,-1.894804 z m 16.088606,9.680725 q 0.206706,6.752391 0.447863,8.268231 -0.241157,0.93018 -0.241157,1.89481 v 0.72347 q 0,0.2067 0.241157,0.2067 -0.447863,0.86128 -0.447863,1.89481 v 0.96463 q 0.447863,6.95909 0.447863,7.54476 v 7.0969 l 0.241157,1.17133 h 3.617353 q 1.653646,0 1.653646,-6.85574 0.241157,-0.82682 0.241157,-0.93018 h 0.68902 q 1.481392,1.41249 2.135961,1.41249 1.41249,-0.48231 5.684411,-0.96462 l 3.996313,0.48231 v -0.48231 q 0,-0.68902 -4.23747,-1.17134 H 76.91176 q -1.825902,0 -4.030764,-3.78961 0,-3.44509 1.653647,-15.812994 -0.68902,-1.653647 -2.135961,-1.653647 z"
       id="text1"
       style="font-size:70.5556px;font-family:'Minecraft Evenings';-inkscape-font-specification:'Minecraft Evenings';text-align:center;text-anchor:middle;stroke-width:0.264583"
       aria-label="o" />
  </g>
</svg>
