<?xml version="1.0" encoding="UTF-8" standalone="no"?>
<!-- Created with Inkscape (http://www.inkscape.org/) -->

<svg
   width="37.999428mm"
   height="49.368248mm"
   viewBox="0 0 37.999428 49.368248"
   version="1.1"
   id="svg1"
   xmlns="http://www.w3.org/2000/svg"
   xmlns:svg="http://www.w3.org/2000/svg">
  <defs
     id="defs1" />
  <g
     id="layer1"
     transform="translate(-51.331907,-88.297767)">
    <path
       d="m 54.432497,88.297764 h 32.76288 q 1.894804,0 1.894804,4.754235 0.241157,1.309137 0.241157,4.788686 0,1.894804 -4.754235,1.894804 l -1.446941,1.205781 q 0.103353,0.48232 0.482313,0.48232 1.136883,0 2.377118,-0.24116 3.100588,0.24116 3.100588,1.65365 0,1.20578 -0.206706,3.5829 l 0.206706,2.37712 q -1.481392,4.30637 -2.135961,4.30637 0,0.58566 0.964628,2.61827 -0.482314,2.85943 -2.135961,2.85943 H 75.034182 q -0.482314,0 -0.482314,-0.48231 l 0.241157,-1.41249 h -0.723471 v -1.20578 l -0.241156,-1.17134 q -2.549373,4.03077 -3.16949,4.27192 -1.446942,-0.24115 -1.446942,0.96463 -0.792372,17.6389 -2.13596,17.6389 l -1.688098,0.48232 H 52.537693 q -1.205784,-0.62012 -1.205784,-1.89481 v -4.30637 q 0,-4.30637 0.241157,-11.67888 0,-0.24116 -0.241157,-0.24116 l 0.241157,-1.6881 v -10.23194 q 0,-10.645349 2.377117,-19.085839 z m 17.018783,2.618274 q 2.377118,1.205785 2.377118,2.859432 h 0.241156 v -2.859432 l -1.41249,-1.894803 q -0.37896,0 -1.205784,1.894803 z m -1.757,6.68349 q -0.482314,0.792373 -0.482314,1.446941 v 6.407881 q 0,1.92926 2.170412,2.41157 h 2.44602 l 0.241156,-1.20578 v -8.819455 h -2.687176 z"
       id="text1"
       style="font-size:70.5556px;font-family:'Minecraft Evenings';-inkscape-font-specification:'Minecraft Evenings';text-align:center;text-anchor:middle;stroke-width:0.264583"
       aria-label="p" />
  </g>
</svg>
