<?xml version="1.0" encoding="UTF-8" standalone="no"?>
<!-- Created with Inkscape (http://www.inkscape.org/) -->

<svg
   width="41.065567mm"
   height="57.567577mm"
   viewBox="0 0 41.065567 57.567577"
   version="1.1"
   id="svg1"
   xmlns="http://www.w3.org/2000/svg"
   xmlns:svg="http://www.w3.org/2000/svg">
  <defs
     id="defs1" />
  <g
     id="layer1"
     transform="translate(-49.953871,-88.263315)">
    <path
       d="m 51.125203,88.263313 h 12.746862 q 2.446019,0 2.82498,3.066137 v 2.135961 q 0,0.34451 0.723471,0.689019 h 0.447862 q 0,-0.930176 0.964628,-3.996313 V 88.50447 q 0.413411,-0.241157 0.930176,-0.241157 h 3.548451 q 1.033529,0 4.478627,3.548451 1.515843,-0.654569 4.478627,-1.41249 0.620118,-1.894804 2.135961,-1.894804 h 3.548451 q 0.757921,0 1.619196,0.68902 0.241156,5.133195 0.482313,18.87914 -0.930176,2.61827 -2.101509,2.61827 l -1.446942,-0.24116 -0.206705,0.44787 v 0.48231 q 3.996313,0.48231 3.996313,1.41249 0.241157,1.30914 0.241157,1.8948 0.241157,15.84745 0.241157,18.63798 l 0.241157,1.17134 q -0.241157,0.93017 -0.241157,1.8948 v 7.0969 q -0.34451,2.34267 -2.135961,2.34267 h -1.41249 q -1.481392,0 -4.478627,-4.47863 -0.482314,0.0689 -0.482314,0.48231 v 0.93018 q 0,1.6881 0.482314,2.58382 l -0.723471,0.48232 h -6.132274 q -0.757921,0 -1.653647,-3.78961 v -4.23747 q 0,-0.48231 -0.447862,-0.48231 h -6.373431 q -4.271922,0 -11.575529,0.24115 -3.307294,-0.65457 -3.307294,-0.93017 -2.342666,-7.78592 -2.342666,-18.63798 v -10.16304 l -0.241157,-1.41249 0.241157,-0.44786 Q 49.95387,98.667508 49.95387,94.395587 v -4.23747 q 0,-1.274686 1.171333,-1.894804 z m 16.054156,9.680725 q 0.241157,6.717942 0.482313,8.233782 -0.241156,0.93018 -0.241156,1.89481 v 0.72347 q 0,0.24115 0.241156,0.24115 -0.482313,0.86128 -0.482313,1.86036 v 0.96462 q 0.482313,6.9591 0.482313,7.54477 v 7.06245 l 0.206706,1.20578 h 3.789608 q 1.653647,0 1.653647,-6.85574 0.241157,-0.82683 0.241157,-0.93018 h 0.689019 q 1.481392,1.41249 2.135961,1.41249 1.41249,-0.48231 5.64996,-0.96463 l 4.030765,0.48232 v -0.48232 q 0,-0.68902 -4.271922,-1.17133 H 77.10124 q -1.825901,0 -4.030764,-3.75516 0,-3.47954 1.653647,-15.812995 -0.68902,-1.653647 -2.135961,-1.653647 z"
       id="text1"
       style="font-size:70.5556px;font-family:'Minecraft Evenings';-inkscape-font-specification:'Minecraft Evenings';text-align:center;text-anchor:middle;stroke-width:0.264583"
       aria-label="q" />
  </g>
</svg>
