<?xml version="1.0" encoding="UTF-8" standalone="no"?>
<!-- Created with Inkscape (http://www.inkscape.org/) -->

<svg
   width="40.6866mm"
   height="49.712761mm"
   viewBox="0 0 40.6866 49.712761"
   version="1.1"
   id="svg1"
   xmlns="http://www.w3.org/2000/svg"
   xmlns:svg="http://www.w3.org/2000/svg">
  <defs
     id="defs1" />
  <g
     id="layer1"
     transform="translate(-49.798839,-87.953253)">
    <path
       d="m 51.693644,87.953254 1.205784,0.241157 h 4.513079 q 0.37896,0.03445 2.377117,2.859431 v 6.407882 q -0.172255,5.477706 -0.964627,5.477706 0.241156,0.44786 0.241156,0.72347 -0.482313,2.13596 -0.482313,2.37712 0,3.5829 1.929255,4.75423 h 0.689019 q 3.100588,-0.72347 3.341745,-0.72347 1.584745,1.20579 2.135961,1.20579 0,-0.24116 0.241156,-0.24116 -0.620117,-1.58475 -1.894803,-2.61827 -2.756079,0.48231 -4.030765,0.48231 l -0.964627,-0.72347 q 0.72347,-1.96371 1.171333,-9.749628 0,-0.275608 -0.206706,-0.723471 0.206706,-2.583823 0.206706,-4.513078 v -2.377118 q 0,-0.792372 -0.689019,-1.653646 v -0.482314 q 0.0689,-0.482314 0.482313,-0.482314 h 26.630606 q 1.894804,0 1.894804,3.548451 0.241157,0 0.482314,1.688098 l -0.723471,5.718862 q 0.241157,1.481388 1.205784,4.030768 0,4.03076 -2.618274,4.03076 -3.582902,0 -4.513078,3.10059 -0.447863,0.24116 -0.964627,0.24116 h -2.377118 q -1.205784,0 -2.135961,1.17133 l 4.271922,0.72347 h 6.407882 l 0.72347,0.48231 -0.241157,1.65365 v 0.24116 q 0,0.48231 0.964628,3.82406 -1.205784,7.51031 -1.205784,11.40327 v 0.48231 q 0.72347,3.10059 0.72347,3.34175 v 1.17133 q 0,1.96371 -2.618274,2.61828 h -4.513078 l -1.205785,-0.24116 v -2.37712 q 0,-0.34451 -0.689019,-0.72347 h -0.241157 q -0.482314,3.34175 -1.894804,3.34175 h -3.582902 q -1.515843,0 -1.894803,-1.89481 l 0.241156,-0.48231 v -0.48232 q 0,-1.65364 -1.205784,-4.75423 0.34451,-7.13135 1.653647,-7.13135 5.925568,-0.48232 10.955411,-1.20579 v -0.44786 H 73.570015 q -0.310059,0 -1.41249,-2.37712 -0.378961,0 -0.964627,-0.48231 H 66.67982 q -0.241157,1.20578 -0.482314,4.51308 0.482314,1.79145 0.482314,2.13596 -0.999079,0.96463 -8.302686,0.96463 -1.584745,0.62011 -1.929255,1.41249 0.241157,0 0.241157,0.24115 3.341745,-0.48231 6.442333,-0.48231 4.030764,0.31006 4.030764,1.44694 0,8.785 -2.13596,8.785 h -9.990784 q -1.309137,0 -1.894804,-1.17133 2.859431,-2.27377 2.859431,-3.58291 v -4.99539 H 55.75886 q -1.102432,0.58567 -1.688098,5.47771 -1.41249,0 -3.548451,3.78961 h -0.482314 q 0.723471,-15.88191 0.964628,-16.88098 -0.964628,-1.96371 -1.205785,-4.27193 0,-11.19656 3.582902,-11.19656 0,-0.27561 4.513078,-0.93018 l 0.68902,-0.72347 q -0.447863,-0.24116 -0.68902,-0.24116 -0.620117,0 -1.894804,0.24116 -5.477705,-0.41341 -5.477705,-1.20578 0.516765,-13.780396 1.171333,-13.780396 z m 15.468489,10.231941 -0.241157,1.171333 v 1.446942 q 0,0.75792 1.205785,2.37712 l -0.482314,4.27192 0.482314,0.24115 h 1.171333 l 2.859431,0.24116 q 0.482314,-0.93017 0.723471,-4.75423 l -0.241157,-0.96463 q 0.241157,-1.24024 0.241157,-2.377118 v -0.68902 q 0,-0.378961 -0.964628,-0.964627 z"
       id="text1"
       style="font-size:70.5556px;font-family:'Minecraft Evenings';-inkscape-font-specification:'Minecraft Evenings';text-align:center;text-anchor:middle;stroke-width:0.264583"
       aria-label="r" />
  </g>
</svg>
