<?xml version="1.0" encoding="UTF-8" standalone="no"?>
<!-- Created with Inkscape (http://www.inkscape.org/) -->

<svg
   width="39.343014mm"
   height="49.333805mm"
   viewBox="0 0 39.343014 49.333805"
   version="1.1"
   id="svg1"
   xmlns="http://www.w3.org/2000/svg"
   xmlns:svg="http://www.w3.org/2000/svg">
  <defs
     id="defs1" />
  <g
     id="layer1"
     transform="translate(-50.057221,-88.332217)">
    <path
       d="m 51.986477,88.332215 h 3.824059 q 1.515843,0 3.341745,1.653647 l -0.241157,1.205784 v 1.205784 q 0,0.241157 0.241157,0.241157 -0.241157,0.447863 -0.241157,0.723471 0,0.72347 -0.241157,4.547529 h 0.241157 q -0.275608,1.619196 -0.72347,2.135963 L 57.01632,99.838842 h -4.788686 q -1.309137,0 -1.929254,-0.964628 0.585666,-10.541999 1.688097,-10.541999 z m 29.972351,0 h 3.135039 q 3.135039,0 4.306373,1.446941 -0.241157,3.582902 -0.241157,5.236549 v 2.652725 q 0,0.482314 -0.482314,0.482314 h -0.241157 q -1.929255,-2.411569 -2.859431,-2.411569 h -3.376196 l -2.377117,-0.241156 q 0,0.241156 -0.241157,0.241156 0.34451,0.999079 1.205784,1.446941 h 3.582902 l 1.205784,0.241157 v 0.482314 q 0,0.482314 -0.482314,0.482314 H 67.317163 l -0.241157,1.205784 q 0.482314,2.135965 0.930176,8.130435 h 20.188273 q 0.482314,0 0.723471,2.37711 0,0.48232 -0.241157,0.48232 0.241157,2.41157 0.241157,3.61735 v 6.44233 q 0,0.55122 0.241157,0.96463 0,1.20578 -8.853902,1.92925 0,0.48232 -1.205784,0.48232 l -0.482314,-0.24116 q -0.964627,0.34451 -0.964627,0.72347 v 0.24116 l 4.547529,0.68902 q 2.204863,-0.68902 2.652726,-0.68902 3.824058,0 3.824058,3.5829 0,2.85943 0.241157,2.85943 l -0.241157,0.48232 q 0.241157,2.89388 0.241157,4.30637 0,1.6881 -2.377118,1.6881 H 51.02185 q -0.34451,0 -0.72347,-0.72347 v -2.13597 q 0,-0.82682 -0.241157,-1.20578 0,-5.75331 2.859431,-5.75331 h 1.205784 q 10.989862,0 14.366058,0.48231 0.964627,-0.24116 0.792372,-0.24116 l 2.411569,0.24116 q 0,-1.757 1.171333,-9.81853 l -0.482314,-0.24116 H 71.45128 q -8.233784,0 -8.233784,-0.96462 l -0.241157,-0.96463 0.241157,-1.20578 q 0,-2.44602 -1.41249,-3.34175 l -0.482313,0.24116 0.241156,1.20578 q 0,4.54753 -2.893882,4.54753 -2.032608,0 -7.165803,0.24116 -0.241157,-0.48232 -0.241157,-0.72347 0,-2.03261 -0.241157,-7.64812 l 0.723471,-1.20578 v -0.48232 q -0.723471,0 -0.723471,-0.48231 v -5.02984 q 0,-0.79238 3.100588,-1.20579 2.756078,0.24116 5.271,0.24116 l 0.482313,-0.72347 v -2.618276 q 0,-0.999079 0.241157,-2.652725 -0.241157,-0.413412 -0.241157,-0.930177 2.824981,-5.99447 5.271,-5.99447 H 78.13477 v 0.241157 q 0.241157,6.442333 1.205784,6.442333 h 0.241157 v -0.930177 q 0,-5.99447 2.377117,-5.99447 z"
       id="text1"
       style="font-size:70.5556px;font-family:'Minecraft Evenings';-inkscape-font-specification:'Minecraft Evenings';text-align:center;text-anchor:middle;stroke-width:0.264583"
       aria-label="s" />
  </g>
</svg>
