<?xml version="1.0" encoding="UTF-8" standalone="no"?>
<!-- Created with Inkscape (http://www.inkscape.org/) -->

<svg
   width="40.61771mm"
   height="49.402702mm"
   viewBox="0 0 40.61771 49.402702"
   version="1.1"
   id="svg1"
   xmlns="http://www.w3.org/2000/svg"
   xmlns:svg="http://www.w3.org/2000/svg">
  <defs
     id="defs1" />
  <g
     id="layer1"
     transform="translate(-50.126124,-88.263313)">
    <path
       d="m 51.538615,88.263313 h 26.389449 l 0.689019,0.482314 q -2.377117,4.995392 -2.377117,5.925568 0.551216,0 0.723471,1.205784 -0.482314,2.10151 -0.482314,2.82498 0.551216,1.688101 0.72347,1.688101 l -0.241156,1.17133 v 34.20982 q -1.412491,1.89481 -3.307294,1.89481 H 62.700732 q -1.653647,0 -2.377118,-2.85944 l 0.241157,-1.65364 v -2.13596 q 0,-6.40789 4.065215,-6.40789 0,-0.31005 1.412491,-0.48231 2.101509,0.24116 2.618274,0.24116 l 4.754235,-0.72347 q 1.205784,0.48231 1.894804,0.48231 l 0.241156,-0.48231 q -0.241156,0 -1.205784,-1.17134 -3.272843,0.48232 -5.202097,0.48232 -4.581981,-0.48232 -6.442333,-0.48232 h -0.447863 q -0.241157,0 -0.241157,0.24116 -1.033529,0 -1.205784,-2.61827 0.241157,-16.26086 0.241157,-20.67059 0.72347,-4.650882 1.894803,-5.925568 v -0.482314 q -2.101509,0 -3.307293,4.271921 l -1.205785,0.241157 q -1.825901,0 -6.649038,0.241157 -1.274687,0 -1.653647,-4.995392 0.482313,-4.513078 1.41249,-4.513078 z m 28.52541,0 h 3.54845 q 4.134118,0 6.407882,0.482314 v 0.689019 q 0,0.723471 0.723471,1.929255 -1.584745,6.166725 -3.789608,6.166725 0,0.241157 -0.241157,0.241157 -7.372509,0 -7.372509,-1.653647 0,-0.172255 -0.723471,-3.341745 1.102432,-4.513078 1.446942,-4.513078 z"
       id="text1"
       style="font-size:70.5556px;font-family:'Minecraft Evenings';-inkscape-font-specification:'Minecraft Evenings';text-align:center;text-anchor:middle;stroke-width:0.264583"
       aria-label="t" />
  </g>
</svg>
