<?xml version="1.0" encoding="UTF-8" standalone="no"?>
<!-- Created with Inkscape (http://www.inkscape.org/) -->

<svg
   width="40.962212mm"
   height="49.506058mm"
   viewBox="0 0 40.962212 49.506058"
   version="1.1"
   id="svg1"
   xmlns="http://www.w3.org/2000/svg"
   xmlns:svg="http://www.w3.org/2000/svg">
  <defs
     id="defs1" />
  <g
     id="layer1"
     transform="translate(-49.350975,-88.159966)">
    <path
       d="m 53.140585,88.15996 h 2.377118 q 5.443254,0 5.443254,1.653647 0.241157,0 0.241157,0.241157 v 2.618274 q 0,1.274686 0.930176,1.653647 0.241157,-1.998156 1.205785,-4.030764 -0.482314,-1.446941 -0.482314,-1.894804 l 0.482314,-0.241157 h 2.82498 q 0.482314,0.0689 0.482314,0.482314 -0.241157,2.721627 -0.482314,3.066137 0.241157,7.338058 0.241157,11.609979 v 20.11937 q 0,0.72347 -3.307294,0.96463 l -2.377118,-0.24116 -0.241156,0.48232 v 0.24115 q 2.411568,1.17134 2.859431,1.17134 h 2.13596 q 1.171334,0.62011 1.171334,1.65364 h 4.030764 q 1.653647,-0.99908 1.653647,-1.41249 0.241157,-4.51308 0.241157,-6.16672 l 0.689019,-0.48232 h 0.241157 l 1.894804,1.6881 q 3.238392,-0.96463 6.649039,-0.96463 h 0.689019 q 0.241157,0 0.241157,0.24116 l 0.482314,-0.24116 q 1.688098,0.48232 1.894804,0.48232 l 0.241157,-0.48232 q -2.721628,-1.17133 -4.960941,-1.17133 h -5.236549 q -3.066137,-2.75608 -3.066137,-3.34174 0,-1.10243 0.241157,-7.33806 l 0.482314,-0.24116 -0.241157,-0.44786 q 1.41249,-8.095981 1.41249,-11.851138 0,-2.032608 -0.241157,-7.096901 h 0.241157 q 0.137804,0 2.82498,2.82498 0.447863,-0.516765 4.271921,-1.41249 1.136883,-1.894804 1.41249,-1.894804 h 5.477706 q 0.930176,0 0.930176,8.750548 0.241157,7.958175 0.241157,11.609985 -1.240235,1.8948 -1.41249,1.8948 h -1.446941 q -0.206706,0 -0.206706,-0.24116 -0.964627,0.37896 -0.964627,0.72347 1.653647,0.62012 4.271921,0.93018 0.241157,1.6881 0.241157,1.8948 0,10.542 0.447863,21.56631 -1.171334,1.89481 -1.412491,1.89481 H 60.7198 q -3.651803,0 -11.127666,0.24116 l -0.241156,-0.48232 q 0,-2.51492 1.653647,-3.30729 0.482313,-3.68626 0.482313,-7.0969 v -7.57922 q 0,-0.55121 -0.241157,-0.96463 l 0.241157,-0.48231 -0.241157,-0.44786 0.241157,-0.48232 -0.241157,-0.48231 0.241157,-0.48231 q -0.241157,-0.41342 -0.241157,-0.93018 h 0.241157 l -0.241157,-0.48231 v -0.24116 q 0,-0.24116 0.241157,-0.24116 l -0.241157,-0.44786 v -0.24116 q 0,-0.24115 0.241157,-0.24115 l -0.241157,-0.48232 v -0.48231 q 0,-0.20671 0.241157,-0.20671 l -0.241157,-0.48231 v -0.24116 q 0,-0.24115 0.241157,-0.24115 l -0.241157,-0.48232 v -0.24115 q 0,-0.20671 0.241157,-0.20671 l -0.241157,-0.48231 v -0.24116 q 0,-0.24116 0.241157,-0.24116 l -0.241157,-0.48231 v -0.24116 q 0,-0.2067 0.241157,-0.2067 l -0.241157,-0.48232 v -5.92557 q 0,-2.721624 -0.241156,-8.302682 h 0.241156 l -0.241156,-0.447863 v -0.241157 q 0,-0.241157 0.241156,-0.241157 0,-0.241156 -0.241156,-0.241156 0,-4.030765 2.13596,-4.030765 z"
       id="text1"
       style="font-size:70.5556px;font-family:'Minecraft Evenings';-inkscape-font-specification:'Minecraft Evenings';text-align:center;text-anchor:middle;stroke-width:0.264583"
       aria-label="u" />
  </g>
</svg>
