<?xml version="1.0" encoding="UTF-8" standalone="no"?>
<!-- Created with Inkscape (http://www.inkscape.org/) -->

<svg
   width="47.507896mm"
   height="49.816113mm"
   viewBox="0 0 47.507896 49.816113"
   version="1.1"
   id="svg1"
   xmlns="http://www.w3.org/2000/svg"
   xmlns:svg="http://www.w3.org/2000/svg">
  <defs
     id="defs1" />
  <g
     id="layer1"
     transform="translate(-46.560448,-87.849907)">
    <path
       d="m 79.908995,87.849901 h 1.41249 q 1.446941,0 4.409725,4.409726 0.447863,0 0.447863,-0.482314 v -0.930177 q 0,-1.619196 -0.447863,-2.549372 l 0.68902,-0.447863 h 6.028921 q 0.757922,0 1.619196,3.720706 v 8.785003 q 0,3.47955 -0.241157,6.27007 0.241157,1.5503 0.241157,4.85759 0,2.82498 -0.482314,6.9591 l 0.241157,0.44786 q 0,5.78777 -2.549372,5.78777 h -1.171333 q -4.168569,-1.51585 -4.168569,-2.06706 -0.37896,-2.54937 -0.930176,-2.54937 h -0.206706 q -0.34451,0 -0.68902,0.68902 l 0.206706,2.30821 q -1.378039,0.68902 -4.857588,0.68902 h -0.689019 q -3.927412,-0.1378 -3.927412,-1.13688 0.310059,0 0.68902,-0.68902 0,-1.51584 -0.241157,-3.03169 0.68902,-4.40972 1.860353,-4.40972 h 0.930176 v -0.20671 q 0,-5.85666 -0.241157,-24.563546 0.585667,-1.860353 2.067059,-1.860353 z m -31.488194,0.68902 h 12.505705 q 1.860353,0 1.860353,3.961862 v 2.997236 q 0,0.826823 0.241157,2.067058 0,1.515843 -2.10151,1.860353 h -2.308215 q -2.10151,1.10243 -2.10151,1.41249 v 0.44786 q 1.481392,0 3.031686,-0.24115 2.997235,0.48231 2.997235,1.17133 v 12.5057 l 0.241157,0.48232 1.136882,-0.24116 q 1.619196,1.13688 1.619196,2.79053 -0.689019,1.92926 -0.689019,2.54937 0.689019,3.4451 1.41249,3.4451 l 7.854823,0.24116 q 0.447863,-0.24116 0.72347,-0.24116 0,1.41249 0.68902,1.41249 3.16949,0 4.375274,-0.24116 l 6.511235,0.48232 q -3.238392,2.03261 -3.238392,4.37527 v 2.10151 q 0,1.86035 -3.272843,1.86035 l -0.447863,0.44787 -1.171333,-0.24116 h -0.206706 q -0.241157,0 -0.241157,0.24116 l -0.447862,-0.24116 h -0.930177 q -0.413411,0 -0.930176,3.47955 -0.413412,0.24116 -0.930176,0.24116 h -8.130431 l -1.136883,-0.24116 v -0.93018 q 0,-2.54937 -1.41249,-2.54937 -2.997235,0 -2.997235,-2.30822 0,-3.23839 -1.378039,-3.23839 h -5.098745 q -1.619196,0 -1.619196,-1.61919 v -3.47955 q 0,-0.34451 -0.72347,-0.68902 h -0.68902 q -4.616431,0 -4.616431,-1.41249 v -7.61367 q 0,-0.79237 -0.241157,-1.17133 l 0.241157,-1.37804 v -6.9591 q 0,-1.10243 0.206706,-2.30821 0,-0.27561 -0.206706,-0.72347 0.206706,-4.271925 0.206706,-7.165807 V 89.22794 q 0.241157,-0.689019 1.41249,-0.689019 z"
       id="text1"
       style="font-size:70.5556px;font-family:'Minecraft Evenings';-inkscape-font-specification:'Minecraft Evenings';text-align:center;text-anchor:middle;stroke-width:0.264583"
       aria-label="v" />
  </g>
</svg>
