<?xml version="1.0" encoding="UTF-8" standalone="no"?>
<!-- Created with Inkscape (http://www.inkscape.org/) -->

<svg
   width="55.913933mm"
   height="49.506058mm"
   viewBox="0 0 55.913933 49.506058"
   version="1.1"
   id="svg1"
   xmlns="http://www.w3.org/2000/svg"
   xmlns:svg="http://www.w3.org/2000/svg">
  <defs
     id="defs1" />
  <g
     id="layer1"
     transform="translate(-42.391879,-88.159966)">
    <path
       d="m 50.935723,88.15996 h 5.891117 q 1.619196,0 2.618274,3.066137 0,2.859431 -2.618274,2.859431 -6.614588,0 -6.614588,1.412491 -0.964627,2.377117 -0.964627,2.618274 0.241157,0 0.241157,0.241157 2.652725,-2.618275 3.54845,-2.618275 0.137804,0 0.964628,-0.241156 2.239313,0.241156 4.271921,0.241156 h 0.68902 q 0.482313,0.0689 0.482313,0.482314 0,0.757922 -0.930176,2.135961 v 1.41249 q 0,0.58567 -0.482314,2.13596 1.171333,5.92557 1.653647,5.92557 4.271921,0 4.271921,-1.20579 0.792373,-9.715171 2.135961,-9.715171 2.273765,0 3.066137,-0.206706 1.550294,0.206706 3.066137,0.206706 h 1.894804 q 2.377117,0 2.377117,8.302681 v 2.13596 l 0.482314,0.24116 q 2.411568,-0.24116 3.789608,-0.24116 0.482313,0 0.482313,-0.48231 V 91.949568 q 0.930177,-3.307294 3.307294,-3.307294 0.0689,-0.241157 2.377118,-0.241157 H 95.9287 q 1.309137,0 2.377117,1.653647 v 23.702276 q 0,0.62011 -1.894803,0.93017 h -3.548451 q -0.792373,0 -2.618274,1.65365 -1.515843,0 -3.100588,0.24116 v 0.96462 q -1.412491,3.16949 -3.066137,9.68073 l -0.482314,0.24116 h -5.443255 q -1.619196,0 -2.13596,-4.03077 l -0.241157,-0.44786 q 0.241157,-1.6192 0.241157,-2.61828 v -0.48231 q -0.826824,-0.65457 -1.41249,-2.13596 -1.309138,0 -9.715176,0.24116 -1.171334,2.23931 -1.171334,3.7896 0,1.24024 0.68902,2.13597 v 0.72347 q -0.654569,1.51584 -1.894804,2.37711 h -0.206706 q -1.963705,-0.44786 -2.13596,-0.96462 l -1.653647,0.24115 h -5.684412 v 0.48232 q 3.341745,0.24115 5.891118,0.68902 v 0.24115 q -0.68902,3.20394 -0.68902,3.54845 0.482314,1.5503 0.482314,2.13596 v 0.96463 q 0,3.3073 -1.894804,3.3073 h -8.302686 q -5.443254,0 -5.443254,-0.96463 l -0.482314,-7.33806 q 1.102431,-1.10243 4.030765,-1.41249 3.479548,0.24116 6.166725,0.24116 v -0.24116 q 0,-0.41341 -3.100588,-1.17133 -2.652726,-1.44694 -6.373431,-1.44694 l -0.723471,-1.41249 q 0.516765,-10.05969 0.964627,-11.36883 -0.241156,-6.16672 -0.241156,-9.71517 v -8.509395 q 0,-5.925568 2.583823,-5.925568 2.721627,-0.241157 5.236549,-0.241157 z m 42.133546,28.90437 h 1.688098 q 2.583823,0 2.583823,6.61459 0.482314,7.20025 0.482314,9.23286 -0.241157,4.51308 -1.171334,4.51308 H 81.941603 q -0.482314,0 -0.482314,-0.48231 0.241157,-3.20395 0.241157,-4.47863 -0.447863,-0.79237 -0.447863,-1.44694 0,-1.41249 3.307294,-1.41249 1.791451,-0.99908 3.548451,-9.23287 0,-2.37711 3.307294,-2.37711 0.378961,-0.93018 1.653647,-0.93018 z"
       id="text1"
       style="font-size:70.5556px;font-family:'Minecraft Evenings';-inkscape-font-specification:'Minecraft Evenings';text-align:center;text-anchor:middle;stroke-width:0.264583"
       aria-label="w" />
  </g>
</svg>
