<?xml version="1.0" encoding="UTF-8" standalone="no"?>
<!-- Created with Inkscape (http://www.inkscape.org/) -->

<svg
   width="41.823486mm"
   height="49.368252mm"
   viewBox="0 0 41.823486 49.368252"
   version="1.1"
   id="svg1"
   xmlns="http://www.w3.org/2000/svg"
   xmlns:svg="http://www.w3.org/2000/svg">
  <defs
     id="defs1" />
  <g
     id="layer1"
     transform="translate(-36.936049,-55.637112)">
    <path
       d="m 75.90011,55.637112 q 1.894804,0 1.894804,3.548451 0.241157,0 0.482314,1.653647 l -0.723471,5.64996 q 0.241157,1.481392 1.205785,4.030764 0,4.030765 -2.618275,4.030765 -3.54845,0 -4.478627,3.066137 -0.413412,0.241157 -0.964627,0.241157 h -2.342667 q -1.171333,0 -2.13596,1.171333 l 4.271921,0.68902 h 6.373431 l 0.689019,0.482313 -0.241156,1.653647 v 0.241157 q 0,0.482314 0.964627,3.789608 -1.171333,7.441411 -1.171333,11.334371 v 0.447863 q 0.689019,3.100585 0.689019,3.307295 v 1.20578 q 0,1.92926 -2.583823,2.58383 h -4.513078 l -1.171334,-0.24116 v -2.34267 q 0,-0.34451 -0.689019,-0.72347 h -0.241157 q -0.447863,3.3073 -1.894804,3.3073 h -3.54845 q -1.481393,0 -1.894804,-1.89481 l 0.241157,-0.44786 v -0.48231 q 0,-1.65365 -1.171334,-4.719788 0.310059,-7.096901 1.653647,-7.096901 5.856667,-0.482314 10.852058,-1.171333 V 88.468894 H 61.981915 l -1.653647,-2.377117 -0.72347,-0.447863 h -1.653647 l -2.82498,-0.241157 q -0.482314,0.895725 -0.723471,4.719784 0,0.241157 0.241157,0.72347 -0.447863,4.168569 -0.447863,8.957255 -1.274686,5.202094 -2.618274,5.202094 H 39.761034 q -1.894803,0 -1.894803,-3.54845 -0.206706,0 -0.447863,-1.653644 l 0.68902,-5.649961 q -0.241157,-1.481392 -1.171334,-4.030764 0,-4.030764 2.583824,-4.030764 3.582901,0 4.513078,-3.066138 0.413411,-0.241156 0.930176,-0.241156 h 2.377118 q 1.171333,0 2.101509,-1.171334 l -4.23747,-0.689019 h -6.373431 l -0.72347,-0.482314 0.241156,-1.653647 v -0.241157 q 0,-0.482313 -0.930176,-3.789607 1.171333,-7.441412 1.171333,-11.334372 V 62.97517 q -0.72347,-3.100588 -0.72347,-3.307294 v -1.205784 q 0,-1.929255 2.618274,-2.583823 h 4.478627 l 1.171333,0.241157 v 2.342666 q 0,0.34451 0.723471,0.723471 h 0.241157 q 0.447862,-3.307294 1.894804,-3.307294 h 3.54845 q 1.481392,0 1.860353,1.894804 l -0.206706,0.447862 v 0.482314 q 0,1.653647 1.171334,4.719784 -0.34451,7.096901 -1.653647,7.096901 -5.856667,0.482314 -10.886509,1.171334 v 0.482313 h 10.886509 l 1.653647,2.377118 0.689019,0.447863 h 1.653647 l 2.859431,0.241156 q 0.447863,-0.895725 0.68902,-4.719784 0,-0.241156 -0.241157,-0.72347 0.482314,-4.168568 0.482314,-8.957254 1.240235,-5.202098 2.583823,-5.202098 z"
       id="text1"
       style="font-size:70.5556px;font-family:'Minecraft Evenings';-inkscape-font-specification:'Minecraft Evenings';text-align:center;text-anchor:middle;stroke-width:0.264583"
       aria-label="X" />
  </g>
</svg>
