<?xml version="1.0" encoding="UTF-8" standalone="no"?>
<!-- Created with Inkscape (http://www.inkscape.org/) -->

<svg
   width="41.547882mm"
   height="49.368248mm"
   viewBox="0 0 41.547882 49.368248"
   version="1.1"
   id="svg1"
   xmlns="http://www.w3.org/2000/svg"
   xmlns:svg="http://www.w3.org/2000/svg">
  <defs
     id="defs1" />
  <g
     id="layer1"
     transform="translate(-49.454329,-88.297767)">
    <path
       d="m 88.142779,88.297764 q 1.894804,0 1.894804,3.548451 0.241157,0 0.482313,1.688098 l -0.72347,5.684411 q 0.241157,1.481396 1.205784,4.030766 0,4.03076 -2.618274,4.03076 -3.582902,0 -4.513078,3.10059 -0.413412,0.24116 -0.964628,0.24116 h -2.342666 q -1.205784,0 -2.135961,1.17133 l 4.271921,0.72347 h 6.407882 l 0.68902,0.44786 -0.241157,1.6881 v 0.24116 q 0,0.48231 0.964627,3.78961 -1.205784,7.71702 -1.205784,10.92096 0.482314,1.17133 0.723471,1.17133 0,0.27561 -0.241157,0.72347 0.241157,2.48047 0.241157,4.03076 -0.964628,2.13597 -2.377118,2.13597 H 52.313762 q -1.688098,0 -1.688098,-3.10059 -0.999079,-2.75608 -1.171333,-2.82498 0.516764,-3.5829 2.13596,-3.5829 h 9.50847 q 0.310059,0 0.68902,0.72347 v 1.41249 q -0.482314,1.72255 -0.482314,1.92925 0,1.41249 2.618274,1.41249 0.241157,0.93018 2.135961,3.3073 0.378961,0 1.205784,-1.89481 -1.343588,0 -2.618274,-3.30729 -1.205784,-0.37896 -1.205784,-0.72347 0.344509,-2.85943 2.13596,-2.85943 h 7.131353 q 0,-0.96463 0.72347,-6.40789 v -1.17133 q 0,-1.06798 -1.446941,-2.13596 -5.99447,-0.24116 -8.750548,-0.24116 h -7.613666 l -0.482314,-0.24115 q 0.447863,-2.37712 1.894804,-2.37712 h 2.377117 q 1.205784,0 2.135961,-1.17133 l -4.271921,-0.72348 h -6.407882 l -0.68902,-0.48231 0.241157,-1.65365 v -0.24115 q 0,-0.48232 -0.964627,-3.78961 1.171333,-7.51031 1.171333,-11.403274 v -0.447863 q -0.68902,-3.100588 -0.68902,-3.341744 v -1.171334 q 0,-1.963705 2.618275,-2.618274 h 4.478627 l 1.205784,0.241157 v 2.377117 q 0,0.34451 0.723471,0.68902 h 0.206705 q 0.482314,-3.307294 1.929255,-3.307294 h 3.548451 q 1.515843,0 1.894804,1.894804 l -0.241157,0.482313 v 0.482314 q 0,1.653647 1.205784,4.719784 -0.34451,7.131354 -1.688098,7.131354 -5.856666,0.48231 -10.92096,1.17133 v 0.48232 h 10.92096 l 1.688098,2.37711 0.68902,0.48232 h 1.653647 l 2.859431,0.24115 q 0.482313,-0.93017 0.72347,-4.75423 0,-0.24116 -0.241157,-0.72347 0.482314,-4.203021 0.482314,-8.991707 1.240235,-5.236549 2.618274,-5.236549 z"
       id="text1"
       style="font-size:70.5556px;font-family:'Minecraft Evenings';-inkscape-font-specification:'Minecraft Evenings';text-align:center;text-anchor:middle;stroke-width:0.264583"
       aria-label="y" />
  </g>
</svg>
