<?xml version="1.0" encoding="UTF-8" standalone="no"?>
<!-- Created with Inkscape (http://www.inkscape.org/) -->

<svg
   width="39.343014mm"
   height="49.333805mm"
   viewBox="0 0 39.343014 49.333805"
   version="1.1"
   id="svg1"
   xmlns="http://www.w3.org/2000/svg"
   xmlns:svg="http://www.w3.org/2000/svg">
  <defs
     id="defs1" />
  <g
     id="layer1"
     transform="translate(-50.057221,-88.332217)">
    <path
       d="m 51.986477,137.66602 q -1.102431,0 -1.688097,-10.542 0.620117,-0.96463 1.929254,-0.96463 h 4.788686 l 1.171334,-0.24116 q 0.447862,0.55122 0.72347,2.17041 h -0.241157 q 0.241157,3.78961 0.241157,4.54753 0,0.24116 0.241157,0.72347 -0.241157,0 -0.241157,0.24116 v 1.20578 l 0.241157,1.17134 q -1.825902,1.6881 -3.341745,1.6881 z m 29.972351,0 q -2.377117,0 -2.377117,-5.99447 v -0.96463 h -0.241157 q -0.964627,0 -1.205784,6.47678 v 0.24116 H 65.146751 q -2.446019,0 -5.271,-5.99447 0,-0.51677 0.241157,-0.96463 -0.241157,-1.61919 -0.241157,-2.61827 v -2.65273 l -0.482313,-0.68902 q -2.514922,0 -5.271,0.24116 -3.100588,-0.41341 -3.100588,-1.20579 v -5.02984 q 0,-0.48231 0.723471,-0.48231 v -0.48232 l -0.723471,-1.20578 q 0.241157,-5.64996 0.241157,-7.64812 0,-0.2756 0.241157,-0.72347 5.133195,0.24116 7.165803,0.24116 2.893882,0 2.893882,4.54753 l -0.241156,1.20578 0.482313,0.24116 q 1.41249,-0.89573 1.41249,-3.3762 l -0.241157,-1.17133 0.241157,-0.96463 q 0,-0.96462 8.233784,-0.96462 h 0.930176 l 0.482314,-0.24116 q -1.171333,-8.095981 -1.171333,-9.81853 l -2.411569,0.241157 q 0.172255,0 -0.792372,-0.241157 -3.376196,0.482314 -14.366058,0.482314 h -1.205784 q -2.859431,0 -2.859431,-5.753314 0.241157,-0.413411 0.241157,-1.205784 v -2.13596 q 0.37896,-0.723471 0.72347,-0.723471 h 35.518958 q 2.377118,0 2.377118,1.653647 0,1.446941 -0.241157,4.340823 l 0.241157,0.482314 q -0.241157,0 -0.241157,2.859431 0,3.5829 -3.824058,3.5829 -0.447863,0 -2.652726,-0.72347 l -4.547529,0.72347 v 0.24116 q 0,0.37896 0.964627,0.72347 l 0.482314,-0.24116 q 1.205784,0 1.205784,0.48232 8.853902,0.68902 8.853902,1.92925 -0.241157,0.41341 -0.241157,0.93018 v 6.47678 q 0,1.20579 -0.241157,3.5829 0.241157,0 0.241157,0.48232 -0.241157,2.41156 -0.723471,2.41156 H 68.006182 q -0.447862,5.99448 -0.930176,8.13044 l 0.241157,1.20578 h 17.776704 q 0.482314,0 0.482314,0.48231 v 0.48232 l -1.205784,0.24115 h -3.582902 q -0.861274,0.44787 -1.205784,1.41249 0.241157,0 0.241157,0.24116 l 2.377117,-0.24116 h 3.376196 q 0.930176,0 2.859431,-2.37711 h 0.241157 q 0.482314,0 0.482314,0.48231 v 2.61827 q 0,1.6881 0.241157,5.271 -1.171334,1.44695 -4.306373,1.44695 z"
       id="text1"
       style="font-size:70.5556px;font-family:'Minecraft Evenings';-inkscape-font-specification:'Minecraft Evenings';text-align:center;text-anchor:middle;stroke-width:0.264583"
       aria-label="z" />
  </g>
</svg>
